<svg width="32" height="32" viewBox="0 0 32 32" fill="none" xmlns="http://www.w3.org/2000/svg">
<mask id="mask0_192_1559" style="mask-type:alpha" maskUnits="userSpaceOnUse" x="0" y="0" width="33" height="32">
<rect x="0.00012207" width="32" height="32" fill="#D9D9D9"/>
</mask>
<g mask="url(#mask0_192_1559)">
<path d="M7.80012 22.8003C8.93345 21.9337 10.2001 21.2503 11.6001 20.7503C13.0001 20.2503 14.4668 20.0003 16.0001 20.0003C17.5335 20.0003 19.0001 20.2503 20.4001 20.7503C21.8001 21.2503 23.0668 21.9337 24.2001 22.8003C24.9779 21.8892 25.5835 20.8559 26.0168 19.7003C26.4501 18.5448 26.6668 17.3114 26.6668 16.0003C26.6668 13.0448 25.6279 10.5281 23.5501 8.45033C21.4723 6.37255 18.9557 5.33366 16.0001 5.33366C13.0446 5.33366 10.5279 6.37255 8.45012 8.45033C6.37234 10.5281 5.33345 13.0448 5.33345 16.0003C5.33345 17.3114 5.55012 18.5448 5.98345 19.7003C6.41679 20.8559 7.02234 21.8892 7.80012 22.8003ZM16.0001 17.3337C14.689 17.3337 13.5835 16.8837 12.6835 15.9837C11.7835 15.0837 11.3335 13.9781 11.3335 12.667C11.3335 11.3559 11.7835 10.2503 12.6835 9.35033C13.5835 8.45033 14.689 8.00033 16.0001 8.00033C17.3112 8.00033 18.4168 8.45033 19.3168 9.35033C20.2168 10.2503 20.6668 11.3559 20.6668 12.667C20.6668 13.9781 20.2168 15.0837 19.3168 15.9837C18.4168 16.8837 17.3112 17.3337 16.0001 17.3337ZM16.0001 29.3337C14.1557 29.3337 12.4223 28.9837 10.8001 28.2837C9.1779 27.5837 7.76679 26.6337 6.56679 25.4337C5.36679 24.2337 4.41679 22.8225 3.71679 21.2003C3.01679 19.5781 2.66679 17.8448 2.66679 16.0003C2.66679 14.1559 3.01679 12.4225 3.71679 10.8003C4.41679 9.1781 5.36679 7.76699 6.56679 6.56699C7.76679 5.36699 9.1779 4.41699 10.8001 3.71699C12.4223 3.01699 14.1557 2.66699 16.0001 2.66699C17.8446 2.66699 19.5779 3.01699 21.2001 3.71699C22.8223 4.41699 24.2335 5.36699 25.4335 6.56699C26.6335 7.76699 27.5835 9.1781 28.2835 10.8003C28.9834 12.4225 29.3335 14.1559 29.3335 16.0003C29.3335 17.8448 28.9834 19.5781 28.2835 21.2003C27.5835 22.8225 26.6335 24.2337 25.4335 25.4337C24.2335 26.6337 22.8223 27.5837 21.2001 28.2837C19.5779 28.9837 17.8446 29.3337 16.0001 29.3337Z" fill="#3182F6"/>
</g>
</svg>
