<svg width="16" height="20" viewBox="0 0 16 20" fill="none" xmlns="http://www.w3.org/2000/svg">
<path d="M15.4861 6.81932C15.3928 6.87788 13.34 8.09435 13.3633 10.6251C13.3891 13.6521 15.9703 14.6601 16 14.6716C15.9769 14.7436 15.5873 16.1073 14.6393 17.5156C13.8201 18.7357 12.9715 19.9488 11.6321 19.9741C10.3161 19.9987 9.89202 19.1794 8.38874 19.1794C6.88454 19.1794 6.41372 19.9488 5.16932 19.9987C3.87649 20.0485 2.89222 18.6812 2.06694 17.4678C0.379836 14.9847 -0.910084 10.4503 0.821978 7.3902C1.68187 5.87046 3.21883 4.90766 4.88646 4.88279C6.15649 4.85836 7.35424 5.75181 8.13109 5.75181C8.89684 5.75181 10.2692 4.71029 11.8869 4.8321C12.521 4.87993 14.3208 5.07254 15.4861 6.81932ZM10.8888 3.19289C11.5758 2.34773 12.0381 1.17071 11.9108 0C10.922 0.039914 9.726 0.670422 9.01675 1.51504C8.38162 2.26324 7.82381 3.46157 7.97526 4.60838C9.07742 4.69507 10.2023 4.03857 10.8888 3.19289Z" fill="#F4F5F7"/>
</svg>
