<svg width="24" height="25" viewBox="0 0 24 25" fill="none" xmlns="http://www.w3.org/2000/svg">
<mask id="mask0_192_1666" style="mask-type:alpha" maskUnits="userSpaceOnUse" x="0" y="0" width="24" height="25">
<rect y="0.5" width="24" height="24" fill="white"/>
</mask>
<g mask="url(#mask0_192_1666)">
<path d="M16.1823 13.504H5.00732C4.72399 13.504 4.48649 13.4082 4.29482 13.2165C4.10316 13.0249 4.00732 12.7874 4.00732 12.504C4.00732 12.2207 4.10316 11.9832 4.29482 11.7915C4.48649 11.5999 4.72399 11.504 5.00732 11.504H16.1823L11.2823 6.60402C11.0823 6.40402 10.9865 6.17068 10.9948 5.90402C11.0032 5.63735 11.1073 5.40402 11.3073 5.20402C11.5073 5.02068 11.7407 4.92485 12.0073 4.91652C12.274 4.90818 12.5073 5.00402 12.7073 5.20402L19.3073 11.804C19.4073 11.904 19.4782 12.0124 19.5198 12.129C19.5615 12.2457 19.5823 12.3707 19.5823 12.504C19.5823 12.6374 19.5615 12.7624 19.5198 12.879C19.4782 12.9957 19.4073 13.104 19.3073 13.204L12.7073 19.804C12.524 19.9874 12.2948 20.079 12.0198 20.079C11.7448 20.079 11.5073 19.9874 11.3073 19.804C11.1073 19.604 11.0073 19.3665 11.0073 19.0915C11.0073 18.8165 11.1073 18.579 11.3073 18.379L16.1823 13.504Z" fill="#A09FA5"/>
</g>
</svg>
