<svg width="40" height="40" viewBox="0 0 40 40" fill="none" xmlns="http://www.w3.org/2000/svg">
<mask id="mask0_108_414" style="mask-type:alpha" maskUnits="userSpaceOnUse" x="0" y="0" width="40" height="40">
<rect width="40" height="40" transform="matrix(-1 0 0 1 40 0)" fill="white"/>
</mask>
<g mask="url(#mask0_108_414)">
<path d="M13.0296 21.6727H31.6546C32.1268 21.6727 32.5227 21.513 32.8421 21.1936C33.1616 20.8741 33.3213 20.4783 33.3213 20.006C33.3213 19.5338 33.1616 19.138 32.8421 18.8185C32.5227 18.4991 32.1268 18.3394 31.6546 18.3394H13.0296L21.1963 10.1727C21.5296 9.83938 21.6893 9.45049 21.6755 9.00604C21.6616 8.5616 21.488 8.17271 21.1546 7.83938C20.8213 7.53382 20.4324 7.3741 19.988 7.36021C19.5435 7.34632 19.1546 7.50604 18.8213 7.83938L7.82129 18.8394C7.65462 19.006 7.53657 19.1866 7.46712 19.381C7.39768 19.5755 7.36296 19.7838 7.36296 20.006C7.36296 20.2283 7.39768 20.4366 7.46712 20.631C7.53657 20.8255 7.65462 21.0061 7.82129 21.1727L18.8213 32.1727C19.1268 32.4783 19.5088 32.6311 19.9671 32.6311C20.4255 32.6311 20.8213 32.4783 21.1546 32.1727C21.488 31.8394 21.6546 31.4436 21.6546 30.9852C21.6546 30.5269 21.488 30.1311 21.1546 29.7977L13.0296 21.6727Z" fill="#A09FA5"/>
</g>
</svg>
