<svg width="24" height="24" viewBox="0 0 24 24" fill="none" xmlns="http://www.w3.org/2000/svg">
<mask id="mask0_2053_409" style="mask-type:alpha" maskUnits="userSpaceOnUse" x="0" y="0" width="24" height="24">
<rect x="24" width="24" height="24" transform="rotate(90 24 0)" fill="#D9D9D9"/>
</mask>
<g mask="url(#mask0_2053_409)">
<path d="M7.6998 10.5C7.6998 10.3667 7.74564 10.25 7.8373 10.15C7.92897 10.05 8.0498 10 8.1998 10H15.7998C15.9498 10 16.0706 10.05 16.1623 10.15C16.254 10.25 16.2998 10.3667 16.2998 10.5C16.2998 10.5333 16.2498 10.65 16.1498 10.85L12.5248 14.475C12.4415 14.5583 12.3581 14.6167 12.2748 14.65C12.1915 14.6833 12.0998 14.7 11.9998 14.7C11.8998 14.7 11.8081 14.6833 11.7248 14.65C11.6415 14.6167 11.5581 14.5583 11.4748 14.475L7.8498 10.85C7.7998 10.8 7.7623 10.7458 7.7373 10.6875C7.7123 10.6292 7.6998 10.5667 7.6998 10.5Z" fill="#3182F6"/>
</g>
</svg>
