<svg width="32" height="32" viewBox="0 0 32 32" fill="none" xmlns="http://www.w3.org/2000/svg">
<mask id="mask0_265_44" style="mask-type:alpha" maskUnits="userSpaceOnUse" x="0" y="0" width="32" height="32">
<rect width="32" height="32" fill="#D9D9D9"/>
</mask>
<g mask="url(#mask0_265_44)">
<path d="M21.1283 17.5165H6.57901C6.15346 17.5165 5.79424 17.3702 5.50135 17.0775C5.20868 16.7846 5.06235 16.4254 5.06235 15.9998C5.06235 15.5743 5.20868 15.2151 5.50135 14.9222C5.79424 14.6295 6.15346 14.4832 6.57901 14.4832H21.1283L14.9057 8.26084C14.6019 7.95684 14.4542 7.60051 14.4627 7.19184C14.4711 6.78318 14.6272 6.42695 14.931 6.12318C15.235 5.8414 15.5913 5.69629 16 5.68784C16.4087 5.6794 16.765 5.82706 17.069 6.13084L25.869 14.9308C26.0181 15.0802 26.1271 15.246 26.196 15.4282C26.2649 15.6102 26.2993 15.8007 26.2993 15.9998C26.2993 16.199 26.2649 16.3895 26.196 16.5715C26.1271 16.7537 26.0181 16.9195 25.869 17.0688L17.061 25.8765C16.7739 26.1636 16.4231 26.3072 16.0087 26.3072C15.5942 26.3072 15.235 26.1636 14.931 25.8765C14.6272 25.5727 14.4753 25.2123 14.4753 24.7952C14.4753 24.3781 14.6272 24.0175 14.931 23.7135L21.1283 17.5165Z" fill="#F4F5F7"/>
</g>
</svg>
