<svg width="40" height="40" viewBox="0 0 40 40" fill="none" xmlns="http://www.w3.org/2000/svg">
<mask id="mask0_287_609" style="mask-type:alpha" maskUnits="userSpaceOnUse" x="0" y="0" width="40" height="40">
<rect width="40" height="40" fill="#D9D9D9"/>
</mask>
<g mask="url(#mask0_287_609)">
<path d="M17.5001 27.1654C17.2779 27.1654 17.0834 27.089 16.9167 26.9362C16.7501 26.7834 16.6667 26.582 16.6667 26.332V13.6654C16.6667 13.4154 16.7501 13.214 16.9167 13.0612C17.0834 12.9084 17.2779 12.832 17.5001 12.832C17.5556 12.832 17.7501 12.9154 18.0834 13.082L24.1251 19.1237C24.264 19.2626 24.3612 19.4015 24.4167 19.5404C24.4723 19.6793 24.5001 19.832 24.5001 19.9987C24.5001 20.1654 24.4723 20.3181 24.4167 20.457C24.3612 20.5959 24.264 20.7348 24.1251 20.8737L18.0834 26.9154C18.0001 26.9987 17.9098 27.0612 17.8126 27.1029C17.7154 27.1445 17.6112 27.1654 17.5001 27.1654Z" fill="#3182F6"/>
</g>
</svg>
