<svg width="40" height="40" viewBox="0 0 40 40" fill="none" xmlns="http://www.w3.org/2000/svg">
<mask id="mask0_92_2038" style="mask-type:alpha" maskUnits="userSpaceOnUse" x="0" y="0" width="40" height="40">
<rect width="40" height="40" fill="#D9D9D9"/>
</mask>
<g mask="url(#mask0_92_2038)">
<path d="M31.6667 21.6675H28.3333C27.8611 21.6675 27.4653 21.5078 27.1458 21.1884C26.8264 20.8689 26.6667 20.4731 26.6667 20.0009C26.6667 19.5286 26.8264 19.1328 27.1458 18.8134C27.4653 18.4939 27.8611 18.3342 28.3333 18.3342H31.6667C32.1389 18.3342 32.5347 18.4939 32.8542 18.8134C33.1736 19.1328 33.3333 19.5286 33.3333 20.0009C33.3333 20.4731 33.1736 20.8689 32.8542 21.1884C32.5347 21.5078 32.1389 21.6675 31.6667 21.6675ZM24.3333 28.0009C24.6111 27.612 24.9722 27.3898 25.4167 27.3342C25.8611 27.2786 26.2778 27.3898 26.6667 27.6675L29.3333 29.6675C29.7222 29.9453 29.9444 30.3064 30 30.7509C30.0556 31.1953 29.9444 31.612 29.6667 32.0009C29.3889 32.3898 29.0278 32.612 28.5833 32.6675C28.1389 32.7231 27.7222 32.612 27.3333 32.3342L24.6667 30.3342C24.2778 30.0564 24.0556 29.6953 24 29.2509C23.9444 28.8064 24.0556 28.3898 24.3333 28.0009ZM29.3333 10.3342L26.6667 12.3342C26.2778 12.612 25.8611 12.7231 25.4167 12.6675C24.9722 12.612 24.6111 12.3898 24.3333 12.0009C24.0556 11.612 23.9444 11.1953 24 10.7509C24.0556 10.3064 24.2778 9.94531 24.6667 9.66753L27.3333 7.66753C27.7222 7.38976 28.1389 7.27865 28.5833 7.3342C29.0278 7.38976 29.3889 7.61198 29.6667 8.00087C29.9444 8.38976 30.0556 8.80642 30 9.25087C29.9444 9.69531 29.7222 10.0564 29.3333 10.3342ZM11.6667 25.0009H6.66667C6.19444 25.0009 5.79861 24.8411 5.47917 24.5217C5.15972 24.2023 5 23.8064 5 23.3342V16.6675C5 16.1953 5.15972 15.7995 5.47917 15.48C5.79861 15.1606 6.19444 15.0009 6.66667 15.0009H11.6667L17.1667 9.50087C17.6944 8.97309 18.2986 8.85503 18.9792 9.1467C19.6597 9.43837 20 9.9592 20 10.7092V29.2925C20 30.0425 19.6597 30.5634 18.9792 30.855C18.2986 31.1467 17.6944 31.0286 17.1667 30.5009L11.6667 25.0009Z" fill="#3182F6"/>
</g>
</svg>
