<svg width="64" height="64" viewBox="0 0 64 64" fill="none" xmlns="http://www.w3.org/2000/svg">
<mask id="mask0_257_816" style="mask-type:alpha" maskUnits="userSpaceOnUse" x="0" y="0" width="64" height="64">
<rect width="64" height="64" fill="#D9D9D9"/>
</mask>
<g mask="url(#mask0_257_816)">
<path d="M13.3333 58.6673C11.8667 58.6673 10.6111 58.1451 9.56667 57.1007C8.52222 56.0562 8 54.8007 8 53.334V16.0007C8 14.534 8.52222 13.2784 9.56667 12.234C10.6111 11.1895 11.8667 10.6673 13.3333 10.6673H16V8.00065C16 7.2451 16.2556 6.61176 16.7667 6.10065C17.2778 5.58954 17.9111 5.33398 18.6667 5.33398C19.4222 5.33398 20.0556 5.58954 20.5667 6.10065C21.0778 6.61176 21.3333 7.2451 21.3333 8.00065V10.6673H42.6667V8.00065C42.6667 7.2451 42.9222 6.61176 43.4333 6.10065C43.9444 5.58954 44.5778 5.33398 45.3333 5.33398C46.0889 5.33398 46.7222 5.58954 47.2333 6.10065C47.7444 6.61176 48 7.2451 48 8.00065V10.6673H50.6667C52.1333 10.6673 53.3889 11.1895 54.4333 12.234C55.4778 13.2784 56 14.534 56 16.0007V33.0007C56 33.7562 55.7444 34.3895 55.2333 34.9007C54.7222 35.4118 54.0889 35.6673 53.3333 35.6673C52.5778 35.6673 51.9444 35.4118 51.4333 34.9007C50.9222 34.3895 50.6667 33.7562 50.6667 33.0007V26.6673H13.3333V53.334H29.9333C30.6889 53.334 31.3111 53.5895 31.8 54.1007C32.2889 54.6118 32.5333 55.2451 32.5333 56.0007C32.5333 56.7562 32.2778 57.3895 31.7667 57.9007C31.2556 58.4118 30.6222 58.6673 29.8667 58.6673H13.3333ZM44.0667 52.4673L53.5333 43.0007C54.0667 42.4673 54.6889 42.2007 55.4 42.2007C56.1111 42.2007 56.7333 42.4673 57.2667 43.0007C57.8 43.534 58.0667 44.1673 58.0667 44.9007C58.0667 45.634 57.8 46.2673 57.2667 46.8007L46 58.134C45.4667 58.6673 44.8333 58.934 44.1 58.934C43.3667 58.934 42.7333 58.6673 42.2 58.134L36.5333 52.4673C36 51.934 35.7333 51.3007 35.7333 50.5673C35.7333 49.834 36 49.2007 36.5333 48.6673C37.0667 48.134 37.7 47.8673 38.4333 47.8673C39.1667 47.8673 39.8 48.134 40.3333 48.6673L44.0667 52.4673Z" fill="#3182F6"/>
</g>
</svg>
