<svg width="16" height="17" viewBox="0 0 16 17" fill="none" xmlns="http://www.w3.org/2000/svg">
<mask id="mask0_108_2444" style="mask-type:alpha" maskUnits="userSpaceOnUse" x="0" y="0" width="16" height="17">
<rect y="0.5" width="16" height="16" fill="#D9D9D9"/>
</mask>
<g mask="url(#mask0_108_2444)">
<path d="M7.06683 9.6987L5.6335 8.26536C5.51127 8.14314 5.35572 8.08203 5.16683 8.08203C4.97794 8.08203 4.82238 8.14314 4.70016 8.26536C4.57794 8.38759 4.51683 8.54314 4.51683 8.73203C4.51683 8.92092 4.57794 9.07648 4.70016 9.1987L6.60016 11.0987C6.7335 11.232 6.88905 11.2987 7.06683 11.2987C7.24461 11.2987 7.40016 11.232 7.5335 11.0987L11.3002 7.33203C11.4224 7.20981 11.4835 7.05425 11.4835 6.86536C11.4835 6.67648 11.4224 6.52092 11.3002 6.3987C11.1779 6.27648 11.0224 6.21536 10.8335 6.21536C10.6446 6.21536 10.4891 6.27648 10.3668 6.3987L7.06683 9.6987ZM8.00016 15.1654C7.07794 15.1654 6.21127 14.9904 5.40016 14.6404C4.58905 14.2904 3.8835 13.8154 3.2835 13.2154C2.6835 12.6154 2.2085 11.9098 1.8585 11.0987C1.5085 10.2876 1.3335 9.42092 1.3335 8.4987C1.3335 7.57648 1.5085 6.70981 1.8585 5.8987C2.2085 5.08759 2.6835 4.38203 3.2835 3.78203C3.8835 3.18203 4.58905 2.70703 5.40016 2.35703C6.21127 2.00703 7.07794 1.83203 8.00016 1.83203C8.92238 1.83203 9.78905 2.00703 10.6002 2.35703C11.4113 2.70703 12.1168 3.18203 12.7168 3.78203C13.3168 4.38203 13.7918 5.08759 14.1418 5.8987C14.4918 6.70981 14.6668 7.57648 14.6668 8.4987C14.6668 9.42092 14.4918 10.2876 14.1418 11.0987C13.7918 11.9098 13.3168 12.6154 12.7168 13.2154C12.1168 13.8154 11.4113 14.2904 10.6002 14.6404C9.78905 14.9904 8.92238 15.1654 8.00016 15.1654Z" fill="#FF2C3E"/>
</g>
</svg>
