<svg width="20" height="20" viewBox="0 0 20 20" fill="none" xmlns="http://www.w3.org/2000/svg">
<rect width="20" height="20" rx="4" fill="#3182F6"/>
<path d="M8.40667 12.3125L15.4692 5.25C15.6358 5.08333 15.8303 5 16.0525 5C16.2747 5 16.4692 5.08333 16.6358 5.25C16.8025 5.41667 16.8858 5.61458 16.8858 5.84375C16.8858 6.07292 16.8025 6.27083 16.6358 6.4375L8.99 14.1042C8.82333 14.2708 8.62889 14.3542 8.40667 14.3542C8.18444 14.3542 7.99 14.2708 7.82333 14.1042L4.24 10.5208C4.07333 10.3542 3.99347 10.1562 4.00042 9.92708C4.00736 9.69792 4.09417 9.5 4.26083 9.33333C4.4275 9.16667 4.62542 9.08333 4.85458 9.08333C5.08375 9.08333 5.28167 9.16667 5.44833 9.33333L8.40667 12.3125Z" fill="#F4F5F7"/>
</svg>
