<svg width="16" height="17" viewBox="0 0 16 17" fill="none" xmlns="http://www.w3.org/2000/svg">
<mask id="mask0_76_262" style="mask-type:alpha" maskUnits="userSpaceOnUse" x="0" y="0" width="16" height="17">
<rect y="0.5" width="16" height="16" fill="#D9D9D9"/>
</mask>
<g mask="url(#mask0_76_262)">
<path d="M7.06683 9.69967L5.6335 8.26634C5.51127 8.14412 5.35572 8.08301 5.16683 8.08301C4.97794 8.08301 4.82238 8.14412 4.70016 8.26634C4.57794 8.38856 4.51683 8.54412 4.51683 8.73301C4.51683 8.9219 4.57794 9.07745 4.70016 9.19967L6.60016 11.0997C6.7335 11.233 6.88905 11.2997 7.06683 11.2997C7.24461 11.2997 7.40016 11.233 7.5335 11.0997L11.3002 7.33301C11.4224 7.21079 11.4835 7.05523 11.4835 6.86634C11.4835 6.67745 11.4224 6.5219 11.3002 6.39967C11.1779 6.27745 11.0224 6.21634 10.8335 6.21634C10.6446 6.21634 10.4891 6.27745 10.3668 6.39967L7.06683 9.69967ZM8.00016 15.1663C7.07794 15.1663 6.21127 14.9913 5.40016 14.6413C4.58905 14.2913 3.8835 13.8163 3.2835 13.2163C2.6835 12.6163 2.2085 11.9108 1.8585 11.0997C1.5085 10.2886 1.3335 9.4219 1.3335 8.49967C1.3335 7.57745 1.5085 6.71079 1.8585 5.89967C2.2085 5.08856 2.6835 4.38301 3.2835 3.78301C3.8835 3.18301 4.58905 2.70801 5.40016 2.35801C6.21127 2.00801 7.07794 1.83301 8.00016 1.83301C8.92238 1.83301 9.78905 2.00801 10.6002 2.35801C11.4113 2.70801 12.1168 3.18301 12.7168 3.78301C13.3168 4.38301 13.7918 5.08856 14.1418 5.89967C14.4918 6.71079 14.6668 7.57745 14.6668 8.49967C14.6668 9.4219 14.4918 10.2886 14.1418 11.0997C13.7918 11.9108 13.3168 12.6163 12.7168 13.2163C12.1168 13.8163 11.4113 14.2913 10.6002 14.6413C9.78905 14.9913 8.92238 15.1663 8.00016 15.1663Z" fill="#A09FA5"/>
</g>
</svg>
