<svg width="32" height="33" viewBox="0 0 32 33" fill="none" xmlns="http://www.w3.org/2000/svg">
<mask id="mask0_280_98" style="mask-type:alpha" maskUnits="userSpaceOnUse" x="0" y="0" width="32" height="33">
<rect y="0.5" width="32" height="32" fill="#D9D9D9"/>
</mask>
<g mask="url(#mask0_280_98)">
<path d="M16.0001 18.3667L9.46673 24.9001C9.22229 25.1445 8.91118 25.2667 8.5334 25.2667C8.15562 25.2667 7.84451 25.1445 7.60007 24.9001C7.35562 24.6556 7.2334 24.3445 7.2334 23.9667C7.2334 23.589 7.35562 23.2778 7.60007 23.0334L14.1334 16.5001L7.60007 9.96673C7.35562 9.72229 7.2334 9.41118 7.2334 9.0334C7.2334 8.65562 7.35562 8.34451 7.60007 8.10007C7.84451 7.85562 8.15562 7.7334 8.5334 7.7334C8.91118 7.7334 9.22229 7.85562 9.46673 8.10007L16.0001 14.6334L22.5334 8.10007C22.7778 7.85562 23.089 7.7334 23.4667 7.7334C23.8445 7.7334 24.1556 7.85562 24.4001 8.10007C24.6445 8.34451 24.7667 8.65562 24.7667 9.0334C24.7667 9.41118 24.6445 9.72229 24.4001 9.96673L17.8667 16.5001L24.4001 23.0334C24.6445 23.2778 24.7667 23.589 24.7667 23.9667C24.7667 24.3445 24.6445 24.6556 24.4001 24.9001C24.1556 25.1445 23.8445 25.2667 23.4667 25.2667C23.089 25.2667 22.7778 25.1445 22.5334 24.9001L16.0001 18.3667Z" fill="#F4F5F7"/>
</g>
</svg>
