<svg width="84" height="53" viewBox="0 0 84 53" fill="none" xmlns="http://www.w3.org/2000/svg">
<path d="M69.6492 18.5357C69.8265 17.5856 69.9192 16.6053 69.9192 15.6028C69.9192 6.98563 63.0715 0 54.6241 0C49.4557 0 44.8859 2.61521 42.1175 6.61931C39.4594 4.34294 36.0312 2.97197 32.2892 2.97197C23.923 2.97197 17.1258 9.82405 16.9961 18.3269H16.9942C7.6085 18.3269 0 26.0887 0 35.6635C0 45.2383 7.6085 53 16.9942 53H67.0059C76.3914 53 84 45.2383 84 35.6635C84 27.0059 77.7795 19.8311 69.6492 18.5357Z" fill="#2F80ED"/>
</svg>
