<svg width="40" height="40" viewBox="0 0 40 40" fill="none" xmlns="http://www.w3.org/2000/svg">
<mask id="mask0_108_73" style="mask-type:alpha" maskUnits="userSpaceOnUse" x="0" y="0" width="40" height="40">
<rect width="40" height="40" fill="#D9D9D9"/>
</mask>
<g mask="url(#mask0_108_73)">
<path d="M20 36.666C17.6945 36.666 15.5278 36.2285 13.5 35.3535C11.4723 34.4785 9.70837 33.2841 8.20837 31.7702C6.70837 30.2563 5.52087 28.4855 4.64587 26.4577C3.77087 24.4299 3.33337 22.2771 3.33337 19.9993C3.33337 15.6382 4.77782 11.8882 7.66671 8.74935C10.5556 5.61046 14.1112 3.83268 18.3334 3.41602V8.41602C15.4723 8.8049 13.0903 10.0896 11.1875 12.2702C9.28476 14.4507 8.33337 17.0271 8.33337 19.9993C8.33337 23.2216 9.47226 25.9716 11.75 28.2493C14.0278 30.5271 16.7778 31.666 20 31.666C21.8334 31.666 23.5487 31.2771 25.1459 30.4993C26.7431 29.7216 28.0834 28.666 29.1667 27.3327L33.5 29.8327C32 31.916 30.0695 33.5757 27.7084 34.8118C25.3473 36.048 22.7778 36.666 20 36.666ZM35.25 26.7493L30.9167 24.2493C31.1667 23.5827 31.3542 22.8952 31.4792 22.1868C31.6042 21.4785 31.6667 20.7493 31.6667 19.9993C31.6667 17.0271 30.7153 14.4507 28.8125 12.2702C26.9098 10.0896 24.5278 8.8049 21.6667 8.41602V3.41602C25.8889 3.83268 29.4445 5.61046 32.3334 8.74935C35.2223 11.8882 36.6667 15.6382 36.6667 19.9993C36.6667 21.2216 36.5556 22.4021 36.3334 23.541C36.1112 24.6799 35.75 25.7493 35.25 26.7493Z" fill="#3182F6"/>
</g>
</svg>
