<svg width="36" height="36" viewBox="0 0 36 36" fill="none" xmlns="http://www.w3.org/2000/svg">
<mask id="mask0_2015_77" style="mask-type:alpha" maskUnits="userSpaceOnUse" x="0" y="0" width="36" height="36">
<rect width="36" height="36" fill="#D9D9D9"/>
</mask>
<g mask="url(#mask0_2015_77)">
<path d="M5.90132 10.5629C5.42257 10.5629 5.01844 10.3983 4.68894 10.069C4.35969 9.73977 4.19507 9.33564 4.19507 8.85664C4.19507 8.37789 4.35969 7.97389 4.68894 7.64464C5.01844 7.31514 5.42257 7.15039 5.90132 7.15039H30.0986C30.5773 7.15039 30.9814 7.31514 31.3109 7.64464C31.6402 7.97389 31.8048 8.37789 31.8048 8.85664C31.8048 9.33564 31.6402 9.73977 31.3109 10.069C30.9814 10.3983 30.5773 10.5629 30.0986 10.5629H5.90132ZM5.90132 28.8501C5.42257 28.8501 5.01844 28.6854 4.68894 28.3559C4.35969 28.0266 4.19507 27.6226 4.19507 27.1439C4.19507 26.6649 4.35969 26.2608 4.68894 25.9315C5.01844 25.6023 5.42257 25.4376 5.90132 25.4376H30.0986C30.5773 25.4376 30.9814 25.6023 31.3109 25.9315C31.6402 26.2608 31.8048 26.6649 31.8048 27.1439C31.8048 27.6226 31.6402 28.0266 31.3109 28.3559C30.9814 28.6854 30.5773 28.8501 30.0986 28.8501H5.90132ZM5.90132 19.7065C5.42257 19.7065 5.01844 19.5419 4.68894 19.2126C4.35969 18.8831 4.19507 18.479 4.19507 18.0003C4.19507 17.5215 4.35969 17.1174 4.68894 16.7879C5.01844 16.4586 5.42257 16.294 5.90132 16.294H30.0986C30.5773 16.294 30.9814 16.4586 31.3109 16.7879C31.6402 17.1174 31.8048 17.5215 31.8048 18.0003C31.8048 18.479 31.6402 18.8831 31.3109 19.2126C30.9814 19.5419 30.5773 19.7065 30.0986 19.7065H5.90132Z" fill="#3182F6"/>
</g>
</svg>
