<svg width="80" height="80" viewBox="0 0 80 80" fill="none" xmlns="http://www.w3.org/2000/svg">
<path d="M34.1719 33.5628C34.1729 33.8228 34.1227 34.0805 34.0241 34.3211C33.9255 34.5617 33.7805 34.7805 33.5973 34.9651C33.4142 35.1497 33.1965 35.2963 32.9566 35.3968C32.7168 35.4972 32.4595 35.5494 32.1995 35.5504C31.9395 35.5494 31.6822 35.4972 31.4424 35.3968C31.2025 35.2963 30.9848 35.1497 30.8017 34.9651C30.6185 34.7805 30.4735 34.5617 30.3749 34.3211C30.2763 34.0805 30.2261 33.8228 30.2271 33.5628C30.2251 33.0377 30.4316 32.5334 30.8013 32.1605C31.1709 31.7876 31.6735 31.5767 32.1986 31.5742C32.4588 31.5751 32.7163 31.6272 32.9563 31.7276C33.1964 31.8281 33.4143 31.9748 33.5977 32.1595C33.781 32.3441 33.9262 32.5631 34.0249 32.8039C34.1236 33.0447 34.1729 33.3026 34.1719 33.5628ZM34.1871 37.1409H30.2109V49.8647H34.1871V37.1409ZM40.5347 37.1409H36.5843V49.8647H40.5357V43.1856C40.5357 39.4714 45.33 39.1685 45.33 43.1856V49.8647H49.2966V41.8085C49.2966 35.5428 42.2014 35.7704 40.5347 38.8561V37.1409Z" fill="#3182F6"/>
<mask id="path-3-inside-1_192_1110" fill="white">
<path d="M0 40C0 17.9086 17.9086 0 40 0C62.0914 0 80 17.9086 80 40C80 62.0914 62.0914 80 40 80C17.9086 80 0 62.0914 0 40Z"/>
</mask>
<path d="M40 80V79C18.4609 79 1 61.5391 1 40H0H-1C-1 62.6437 17.3563 81 40 81V80ZM80 40H79C79 61.5391 61.5391 79 40 79V80V81C62.6437 81 81 62.6437 81 40H80ZM40 0V1C61.5391 1 79 18.4609 79 40H80H81C81 17.3563 62.6437 -1 40 -1V0ZM40 0V-1C17.3563 -1 -1 17.3563 -1 40H0H1C1 18.4609 18.4609 1 40 1V0Z" fill="#3182F6" fill-opacity="0.64" mask="url(#path-3-inside-1_192_1110)"/>
</svg>
