<svg width="80" height="80" viewBox="0 0 80 80" fill="none" xmlns="http://www.w3.org/2000/svg">
<mask id="mask0_192_1098" style="mask-type:luminance" maskUnits="userSpaceOnUse" x="30" y="30" width="20" height="20">
<path d="M50 30H30V50H50V30Z" fill="white"/>
</mask>
<g mask="url(#mask0_192_1098)">
<path fill-rule="evenodd" clip-rule="evenodd" d="M35.9091 32.6364C34.1016 32.6364 32.6364 34.1016 32.6364 35.9091V44.0909C32.6364 45.8984 34.1016 47.3636 35.9091 47.3636H44.0909C45.8984 47.3636 47.3636 45.8984 47.3636 44.0909V35.9091C47.3636 34.1016 45.8984 32.6364 44.0909 32.6364H35.9091ZM31 35.9091C31 33.1979 33.1979 31 35.9091 31H44.0909C46.8021 31 49 33.1979 49 35.9091V44.0909C49 46.8021 46.8021 49 44.0909 49H35.9091C33.1979 49 31 46.8021 31 44.0909V35.9091ZM40.3936 37.5378C39.8829 37.4621 39.3613 37.5493 38.9031 37.7871C38.4448 38.0249 38.0732 38.4012 37.8411 38.8623C37.609 39.3235 37.5282 39.8461 37.6102 40.3558C37.6922 40.8655 37.9329 41.3364 38.2979 41.7015C38.663 42.0665 39.1339 42.3072 39.6436 42.3892C40.1533 42.4712 40.6759 42.3904 41.1371 42.1583C41.5983 41.9262 41.9745 41.5546 42.2123 41.0963C42.4501 40.6381 42.5373 40.1165 42.4616 39.6058C42.3843 39.0849 42.1416 38.6026 41.7692 38.2302C41.3968 37.8578 40.9145 37.6151 40.3936 37.5378ZM38.1494 36.3347C38.9132 35.9384 39.7825 35.793 40.6336 35.9192C41.5018 36.0479 42.3056 36.4525 42.9263 37.0731C43.5469 37.6938 43.9515 38.4976 44.0802 39.3658C44.2064 40.2169 44.0611 41.0862 43.6647 41.85C43.2684 42.6138 42.6414 43.2331 41.8728 43.62C41.1042 44.0068 40.2332 44.1415 39.3836 44.0048C38.5341 43.8681 37.7493 43.467 37.1409 42.8586C36.5324 42.2501 36.1313 41.4653 35.9946 40.6158C35.8579 39.7662 35.9926 38.8952 36.3794 38.1266C36.7663 37.358 37.3856 36.731 38.1494 36.3347ZM44.4984 34.6818C44.0465 34.6818 43.6802 35.0481 43.6802 35.5C43.6802 35.9519 44.0465 36.3182 44.4984 36.3182H44.5066C44.9585 36.3182 45.3248 35.9519 45.3248 35.5C45.3248 35.0481 44.9585 34.6818 44.5066 34.6818H44.4984Z" fill="#3182F6"/>
</g>
<mask id="path-4-inside-1_192_1098" fill="white">
<path d="M0 40C0 17.9086 17.9086 0 40 0C62.0914 0 80 17.9086 80 40C80 62.0914 62.0914 80 40 80C17.9086 80 0 62.0914 0 40Z"/>
</mask>
<path d="M40 80V79C18.4609 79 1 61.5391 1 40H0H-1C-1 62.6437 17.3563 81 40 81V80ZM80 40H79C79 61.5391 61.5391 79 40 79V80V81C62.6437 81 81 62.6437 81 40H80ZM40 0V1C61.5391 1 79 18.4609 79 40H80H81C81 17.3563 62.6437 -1 40 -1V0ZM40 0V-1C17.3563 -1 -1 17.3563 -1 40H0H1C1 18.4609 18.4609 1 40 1V0Z" fill="#3182F6" fill-opacity="0.64" mask="url(#path-4-inside-1_192_1098)"/>
</svg>
