<svg width="40" height="40" viewBox="0 0 40 40" fill="none" xmlns="http://www.w3.org/2000/svg">
<mask id="mask0_108_50" style="mask-type:alpha" maskUnits="userSpaceOnUse" x="0" y="0" width="40" height="40">
<rect width="40" height="40" fill="#D9D9D9"/>
</mask>
<g mask="url(#mask0_108_50)">
<path d="M6.66665 33.3327C5.74998 33.3327 4.96526 33.0063 4.31248 32.3535C3.6597 31.7007 3.33331 30.916 3.33331 29.9993V9.99935C3.33331 9.08268 3.6597 8.29796 4.31248 7.64518C4.96526 6.9924 5.74998 6.66602 6.66665 6.66602H33.3333C34.25 6.66602 35.0347 6.9924 35.6875 7.64518C36.3403 8.29796 36.6666 9.08268 36.6666 9.99935V29.9993C36.6666 30.916 36.3403 31.7007 35.6875 32.3535C35.0347 33.0063 34.25 33.3327 33.3333 33.3327H6.66665ZM20 21.3743C20.1389 21.3743 20.2847 21.3535 20.4375 21.3118C20.5903 21.2702 20.7361 21.2077 20.875 21.1243L32.6666 13.7493C32.8889 13.6105 33.0555 13.4368 33.1666 13.2285C33.2778 13.0202 33.3333 12.791 33.3333 12.541C33.3333 11.9855 33.0972 11.5688 32.625 11.291C32.1528 11.0132 31.6666 11.0271 31.1666 11.3327L20 18.3327L8.83331 11.3327C8.33331 11.0271 7.8472 11.0202 7.37498 11.3118C6.90276 11.6035 6.66665 12.0132 6.66665 12.541C6.66665 12.8188 6.7222 13.0618 6.83331 13.2702C6.94442 13.4785 7.11109 13.6382 7.33331 13.7493L19.125 21.1243C19.2639 21.2077 19.4097 21.2702 19.5625 21.3118C19.7153 21.3535 19.8611 21.3743 20 21.3743Z" fill="#3182F6"/>
</g>
</svg>
