<svg width="16" height="16" viewBox="0 0 16 16" fill="none" xmlns="http://www.w3.org/2000/svg">
<mask id="mask0_237_266" style="mask-type:alpha" maskUnits="userSpaceOnUse" x="0" y="0" width="16" height="16">
<rect width="16" height="16" fill="#D9D9D9"/>
</mask>
<g mask="url(#mask0_237_266)">
<path d="M2.6665 9.33334C2.6665 8.07778 3.03873 6.87223 3.78317 5.71667C4.52762 4.56111 5.54984 3.55 6.84984 2.68334C7.09428 2.51667 7.34706 2.50834 7.60817 2.65834C7.86928 2.80834 7.99984 3.03334 7.99984 3.33334V4.2C7.99984 4.57778 8.13039 4.89445 8.3915 5.15C8.65262 5.40556 8.97206 5.53334 9.34984 5.53334C9.53873 5.53334 9.71928 5.49167 9.8915 5.40834C10.0637 5.325 10.2165 5.20556 10.3498 5.05C10.4387 4.93889 10.5526 4.86945 10.6915 4.84167C10.8304 4.81389 10.9609 4.84445 11.0832 4.93334C11.7832 5.43334 12.3332 6.07223 12.7332 6.85C13.1332 7.62778 13.3332 8.45556 13.3332 9.33334C13.3332 10.3111 13.0943 11.2028 12.6165 12.0083C12.1387 12.8139 11.5109 13.45 10.7332 13.9167C10.9221 13.65 11.0693 13.3583 11.1748 13.0417C11.2804 12.725 11.3332 12.3889 11.3332 12.0333C11.3332 11.5889 11.2498 11.1694 11.0832 10.775C10.9165 10.3806 10.6776 10.0278 10.3665 9.71667L7.99984 7.4L5.64984 9.71667C5.32762 10.0389 5.08317 10.3944 4.9165 10.7833C4.74984 11.1722 4.6665 11.5889 4.6665 12.0333C4.6665 12.3889 4.71928 12.725 4.82484 13.0417C4.93039 13.3583 5.07762 13.65 5.2665 13.9167C4.48873 13.45 3.86095 12.8139 3.38317 12.0083C2.90539 11.2028 2.6665 10.3111 2.6665 9.33334ZM7.99984 9.26667L9.4165 10.65C9.60539 10.8389 9.74984 11.05 9.84984 11.2833C9.94984 11.5167 9.99984 11.7667 9.99984 12.0333C9.99984 12.5778 9.80539 13.0417 9.4165 13.425C9.02762 13.8083 8.55539 14 7.99984 14C7.44428 14 6.97206 13.8083 6.58317 13.425C6.19428 13.0417 5.99984 12.5778 5.99984 12.0333C5.99984 11.7778 6.04984 11.5306 6.14984 11.2917C6.24984 11.0528 6.39428 10.8389 6.58317 10.65L7.99984 9.26667Z" fill="#FF2C3E"/>
</g>
</svg>
