<svg width="32" height="32" viewBox="0 0 32 32" fill="none" xmlns="http://www.w3.org/2000/svg">
<mask id="mask0_257_807" style="mask-type:alpha" maskUnits="userSpaceOnUse" x="0" y="0" width="32" height="32">
<rect width="32" height="32" fill="#D9D9D9"/>
</mask>
<g mask="url(#mask0_257_807)">
<path d="M7.99967 18.6673C7.26634 18.6673 6.63856 18.4062 6.11634 17.884C5.59412 17.3618 5.33301 16.734 5.33301 16.0007C5.33301 15.2673 5.59412 14.6395 6.11634 14.1173C6.63856 13.5951 7.26634 13.334 7.99967 13.334C8.73301 13.334 9.36079 13.5951 9.88301 14.1173C10.4052 14.6395 10.6663 15.2673 10.6663 16.0007C10.6663 16.734 10.4052 17.3618 9.88301 17.884C9.36079 18.4062 8.73301 18.6673 7.99967 18.6673ZM15.9997 18.6673C15.2663 18.6673 14.6386 18.4062 14.1163 17.884C13.5941 17.3618 13.333 16.734 13.333 16.0007C13.333 15.2673 13.5941 14.6395 14.1163 14.1173C14.6386 13.5951 15.2663 13.334 15.9997 13.334C16.733 13.334 17.3608 13.5951 17.883 14.1173C18.4052 14.6395 18.6663 15.2673 18.6663 16.0007C18.6663 16.734 18.4052 17.3618 17.883 17.884C17.3608 18.4062 16.733 18.6673 15.9997 18.6673ZM23.9997 18.6673C23.2663 18.6673 22.6386 18.4062 22.1163 17.884C21.5941 17.3618 21.333 16.734 21.333 16.0007C21.333 15.2673 21.5941 14.6395 22.1163 14.1173C22.6386 13.5951 23.2663 13.334 23.9997 13.334C24.733 13.334 25.3608 13.5951 25.883 14.1173C26.4052 14.6395 26.6663 15.2673 26.6663 16.0007C26.6663 16.734 26.4052 17.3618 25.883 17.884C25.3608 18.4062 24.733 18.6673 23.9997 18.6673Z" fill="#203453"/>
</g>
</svg>
