<svg width="40" height="40" viewBox="0 0 40 40" fill="none" xmlns="http://www.w3.org/2000/svg">
<mask id="mask0_92_441" style="mask-type:alpha" maskUnits="userSpaceOnUse" x="0" y="0" width="40" height="40">
<rect width="40" height="40" fill="#D9D9D9"/>
</mask>
<g mask="url(#mask0_92_441)">
<path d="M6.66668 28.334V31.6673H33.3333V28.334H6.66668ZM6.66668 10.0007H10.3333C10.1945 9.75065 10.1042 9.48676 10.0625 9.20898C10.0208 8.93121 10 8.63954 10 8.33398C10 6.9451 10.4861 5.76454 11.4583 4.79232C12.4306 3.8201 13.6111 3.33398 15 3.33398C15.8333 3.33398 16.6042 3.54926 17.3125 3.97982C18.0208 4.41037 18.6389 4.9451 19.1667 5.58398L20 6.66732L20.8333 5.58398C21.3333 4.91732 21.9445 4.37565 22.6667 3.95898C23.3889 3.54232 24.1667 3.33398 25 3.33398C26.3889 3.33398 27.5695 3.8201 28.5417 4.79232C29.5139 5.76454 30 6.9451 30 8.33398C30 8.63954 29.9792 8.93121 29.9375 9.20898C29.8958 9.48676 29.8056 9.75065 29.6667 10.0007H33.3333C34.25 10.0007 35.0347 10.327 35.6875 10.9798C36.3403 11.6326 36.6667 12.4173 36.6667 13.334V31.6673C36.6667 32.584 36.3403 33.3687 35.6875 34.0215C35.0347 34.6743 34.25 35.0007 33.3333 35.0007H6.66668C5.75001 35.0007 4.96529 34.6743 4.31251 34.0215C3.65973 33.3687 3.33334 32.584 3.33334 31.6673V13.334C3.33334 12.4173 3.65973 11.6326 4.31251 10.9798C4.96529 10.327 5.75001 10.0007 6.66668 10.0007ZM6.66668 23.334H33.3333V13.334H24.8333L28.3333 18.084L25.6667 20.0007L20 12.334L14.3333 20.0007L11.6667 18.084L15.0833 13.334H6.66668V23.334ZM15 10.0007C15.4722 10.0007 15.8681 9.84093 16.1875 9.52148C16.507 9.20204 16.6667 8.80621 16.6667 8.33398C16.6667 7.86176 16.507 7.46593 16.1875 7.14648C15.8681 6.82704 15.4722 6.66732 15 6.66732C14.5278 6.66732 14.132 6.82704 13.8125 7.14648C13.4931 7.46593 13.3333 7.86176 13.3333 8.33398C13.3333 8.80621 13.4931 9.20204 13.8125 9.52148C14.132 9.84093 14.5278 10.0007 15 10.0007ZM25 10.0007C25.4722 10.0007 25.8681 9.84093 26.1875 9.52148C26.507 9.20204 26.6667 8.80621 26.6667 8.33398C26.6667 7.86176 26.507 7.46593 26.1875 7.14648C25.8681 6.82704 25.4722 6.66732 25 6.66732C24.5278 6.66732 24.132 6.82704 23.8125 7.14648C23.4931 7.46593 23.3333 7.86176 23.3333 8.33398C23.3333 8.80621 23.4931 9.20204 23.8125 9.52148C24.132 9.84093 24.5278 10.0007 25 10.0007Z" fill="#3182F6"/>
</g>
</svg>
