<svg width="24" height="25" viewBox="0 0 24 25" fill="none" xmlns="http://www.w3.org/2000/svg">
<mask id="mask0_253_2316" style="mask-type:alpha" maskUnits="userSpaceOnUse" x="0" y="0" width="24" height="25">
<rect y="0.5" width="24" height="24" fill="#D9D9D9"/>
</mask>
<g mask="url(#mask0_253_2316)">
<path d="M9.4522 16.6373C7.59953 16.6373 6.03011 15.9942 4.74395 14.7081C3.45778 13.4217 2.8147 11.8523 2.8147 9.9998C2.8147 8.14731 3.45778 6.57789 4.74395 5.29155C6.03011 4.00539 7.59953 3.3623 9.4522 3.3623C11.3047 3.3623 12.874 4.00539 14.1602 5.29155C15.4465 6.57789 16.0897 8.14731 16.0897 9.9998C16.0897 10.7411 15.977 11.4338 15.7517 12.0778C15.5262 12.7218 15.2214 13.2898 14.8374 13.7818L20.3897 19.3401C20.6009 19.5552 20.7064 19.8214 20.7064 20.1386C20.7064 20.4559 20.5989 20.7201 20.3837 20.9313C20.1724 21.1425 19.9071 21.2481 19.5879 21.2481C19.2688 21.2481 19.0036 21.1425 18.7924 20.9313L13.2462 15.3851C12.7502 15.7692 12.1782 16.074 11.5302 16.2993C10.8822 16.5246 10.1895 16.6373 9.4522 16.6373ZM9.4522 14.3623C10.6662 14.3623 11.6968 13.9387 12.5439 13.0916C13.3911 12.2446 13.8147 11.214 13.8147 9.9998C13.8147 8.78564 13.3911 7.75505 12.5439 6.90806C11.6968 6.06089 10.6662 5.6373 9.4522 5.6373C8.23803 5.6373 7.20736 6.06089 6.3602 6.90806C5.5132 7.75505 5.0897 8.78564 5.0897 9.9998C5.0897 11.214 5.5132 12.2446 6.3602 13.0916C7.20736 13.9387 8.23803 14.3623 9.4522 14.3623Z" fill="#F4F5F7"/>
</g>
</svg>
