<svg width="20" height="20" viewBox="0 0 20 20" fill="none" xmlns="http://www.w3.org/2000/svg">
<mask id="mask0_76_62" style="mask-type:alpha" maskUnits="userSpaceOnUse" x="0" y="0" width="20" height="20">
<rect width="20" height="20" fill="#D9D9D9"/>
</mask>
<g mask="url(#mask0_76_62)">
<path d="M9.99577 13.3359C11.0374 13.3359 11.9229 12.9714 12.652 12.2422C13.3812 11.513 13.7458 10.6276 13.7458 9.58594C13.7458 8.54427 13.3812 7.65885 12.652 6.92969C11.9229 6.20052 11.0374 5.83594 9.99577 5.83594C8.9541 5.83594 8.06869 6.20052 7.33952 6.92969C6.61035 7.65885 6.24577 8.54427 6.24577 9.58594C6.24577 10.6276 6.61035 11.513 7.33952 12.2422C8.06869 12.9714 8.9541 13.3359 9.99577 13.3359ZM9.99577 11.8359C9.37077 11.8359 8.83952 11.6172 8.40202 11.1797C7.96452 10.7422 7.74577 10.2109 7.74577 9.58594C7.74577 8.96094 7.96452 8.42969 8.40202 7.99219C8.83952 7.55469 9.37077 7.33594 9.99577 7.33594C10.6208 7.33594 11.152 7.55469 11.5895 7.99219C12.027 8.42969 12.2458 8.96094 12.2458 9.58594C12.2458 10.2109 12.027 10.7422 11.5895 11.1797C11.152 11.6172 10.6208 11.8359 9.99577 11.8359ZM9.99577 15.8359C7.96799 15.8359 6.12077 15.27 4.4541 14.138C2.78743 13.0061 1.5791 11.4887 0.829102 9.58594C1.5791 7.68316 2.78743 6.1658 4.4541 5.03385C6.12077 3.90191 7.96799 3.33594 9.99577 3.33594C12.0235 3.33594 13.8708 3.90191 15.5374 5.03385C17.2041 6.1658 18.4124 7.68316 19.1624 9.58594C18.4124 11.4887 17.2041 13.0061 15.5374 14.138C13.8708 15.27 12.0235 15.8359 9.99577 15.8359ZM9.99577 14.1693C11.5652 14.1693 13.0062 13.7561 14.3187 12.9297C15.6312 12.1033 16.6347 10.9887 17.3291 9.58594C16.6347 8.18316 15.6312 7.06858 14.3187 6.24219C13.0062 5.4158 11.5652 5.0026 9.99577 5.0026C8.42632 5.0026 6.98535 5.4158 5.67285 6.24219C4.36035 7.06858 3.35688 8.18316 2.66244 9.58594C3.35688 10.9887 4.36035 12.1033 5.67285 12.9297C6.98535 13.7561 8.42632 14.1693 9.99577 14.1693Z" fill="#A09FA5"/>
</g>
</svg>
