<svg width="120" height="120" viewBox="0 0 120 120" fill="none" xmlns="http://www.w3.org/2000/svg">
<mask id="mask0_251_257" style="mask-type:alpha" maskUnits="userSpaceOnUse" x="0" y="0" width="120" height="120">
<rect width="120" height="120" fill="#D9D9D9"/>
</mask>
<g mask="url(#mask0_251_257)">
<path d="M29.9995 100.002C24.4995 100.002 19.7911 98.0436 15.8745 94.127C11.9578 90.2103 9.99945 85.502 9.99945 80.002V40.002C9.99945 34.502 11.9578 29.7936 15.8745 25.877C19.7911 21.9603 24.4995 20.002 29.9995 20.002H89.9995C95.4995 20.002 100.208 21.9603 104.124 25.877C108.041 29.7936 109.999 34.502 109.999 40.002V80.002C109.999 85.502 108.041 90.2103 104.124 94.127C100.208 98.0436 95.4995 100.002 89.9995 100.002H29.9995ZM29.9995 40.002H89.9995C91.8328 40.002 93.5828 40.2103 95.2495 40.627C96.9161 41.0436 98.4995 41.7103 99.9995 42.627V40.002C99.9995 37.252 99.0203 34.8978 97.062 32.9395C95.1036 30.9811 92.7495 30.002 89.9995 30.002H29.9995C27.2495 30.002 24.8953 30.9811 22.937 32.9395C20.9786 34.8978 19.9995 37.252 19.9995 40.002V42.627C21.4995 41.7103 23.0828 41.0436 24.7495 40.627C26.4161 40.2103 28.1661 40.002 29.9995 40.002ZM20.7495 56.252L76.3745 69.752C77.1245 69.9186 77.8745 69.9186 78.6245 69.752C79.3745 69.5853 80.0828 69.252 80.7495 68.752L98.1245 54.252C97.2078 53.002 96.0411 51.9811 94.6245 51.1895C93.2078 50.3978 91.6661 50.002 89.9995 50.002H29.9995C27.8328 50.002 25.937 50.5645 24.312 51.6895C22.687 52.8145 21.4995 54.3353 20.7495 56.252Z" fill="#3182F6"/>
</g>
</svg>
