<svg width="80" height="80" viewBox="0 0 80 80" fill="none" xmlns="http://www.w3.org/2000/svg">
<path d="M31.0439 31L37.9935 40.3765L31 48H32.574L38.6967 41.3255L43.6438 48H49L41.6594 38.0961L48.1689 31H46.5949L40.9561 37.1471L36.4001 31H31.0439ZM33.3585 32.1699H35.8192L46.685 46.8299H44.2244L33.3585 32.1699Z" fill="#3182F6"/>
<mask id="path-3-inside-1_192_1118" fill="white">
<path d="M0 40C0 17.9086 17.9086 0 40 0C62.0914 0 80 17.9086 80 40C80 62.0914 62.0914 80 40 80C17.9086 80 0 62.0914 0 40Z"/>
</mask>
<path d="M40 80V79C18.4609 79 1 61.5391 1 40H0H-1C-1 62.6437 17.3563 81 40 81V80ZM80 40H79C79 61.5391 61.5391 79 40 79V80V81C62.6437 81 81 62.6437 81 40H80ZM40 0V1C61.5391 1 79 18.4609 79 40H80H81C81 17.3563 62.6437 -1 40 -1V0ZM40 0V-1C17.3563 -1 -1 17.3563 -1 40H0H1C1 18.4609 18.4609 1 40 1V0Z" fill="#3182F6" fill-opacity="0.64" mask="url(#path-3-inside-1_192_1118)"/>
</svg>
