<svg width="80" height="80" viewBox="0 0 80 80" fill="none" xmlns="http://www.w3.org/2000/svg">
<mask id="mask0_192_1126" style="mask-type:luminance" maskUnits="userSpaceOnUse" x="30" y="30" width="20" height="20">
<path d="M50 30H30V50H50V30Z" fill="white"/>
</mask>
<g mask="url(#mask0_192_1126)">
<path d="M49.5781 35.1856C49.4643 34.7628 49.2414 34.3773 48.9318 34.0677C48.6222 33.7581 48.2367 33.5352 47.8139 33.4214C46.2568 33 40 33 40 33C40 33 33.7432 33 32.1861 33.4214C31.7633 33.5352 31.3778 33.7581 31.0682 34.0677C30.7586 34.3773 30.5357 34.7628 30.4219 35.1856C30.1312 36.7736 29.9901 38.3853 30.0005 39.9996C29.9901 41.6139 30.1312 43.2257 30.4219 44.8137C30.5357 45.2365 30.7586 45.622 31.0682 45.9316C31.3778 46.2412 31.7633 46.464 32.1861 46.5778C33.7432 46.9992 40 46.9992 40 46.9992C40 46.9992 46.2568 46.9992 47.8139 46.5778C48.2367 46.464 48.6222 46.2412 48.9318 45.9316C49.2414 45.622 49.4643 45.2365 49.5781 44.8137C49.8688 43.2257 50.0099 41.6139 49.9995 39.9996C50.0099 38.3853 49.8688 36.7736 49.5781 35.1856ZM38.0001 42.9995V36.9998L43.1927 39.9996L38.0001 42.9995Z" fill="#3182F6"/>
</g>
<mask id="path-4-inside-1_192_1126" fill="white">
<path d="M0 40C0 17.9086 17.9086 0 40 0C62.0914 0 80 17.9086 80 40C80 62.0914 62.0914 80 40 80C17.9086 80 0 62.0914 0 40Z"/>
</mask>
<path d="M40 80V79C18.4609 79 1 61.5391 1 40H0H-1C-1 62.6437 17.3563 81 40 81V80ZM80 40H79C79 61.5391 61.5391 79 40 79V80V81C62.6437 81 81 62.6437 81 40H80ZM40 0V1C61.5391 1 79 18.4609 79 40H80H81C81 17.3563 62.6437 -1 40 -1V0ZM40 0V-1C17.3563 -1 -1 17.3563 -1 40H0H1C1 18.4609 18.4609 1 40 1V0Z" fill="#3182F6" fill-opacity="0.64" mask="url(#path-4-inside-1_192_1126)"/>
</svg>
