<svg width="56" height="56" viewBox="0 0 56 56" fill="none" xmlns="http://www.w3.org/2000/svg">
<circle cx="28" cy="28" r="28" fill="#F4F5F7"/>
<path fill-rule="evenodd" clip-rule="evenodd" d="M22.6667 21.3333C22.6667 19.9188 23.2286 18.5623 24.2288 17.5621C25.229 16.5619 26.5855 16 28 16C29.4145 16 30.771 16.5619 31.7712 17.5621C32.7714 18.5623 33.3333 19.9188 33.3333 21.3333C33.3333 22.7478 32.7714 24.1044 31.7712 25.1046C30.771 26.1048 29.4145 26.6667 28 26.6667C26.5855 26.6667 25.229 26.1048 24.2288 25.1046C23.2286 24.1044 22.6667 22.7478 22.6667 21.3333ZM22.6667 29.3333C20.8986 29.3333 19.2029 30.0357 17.9526 31.286C16.7024 32.5362 16 34.2319 16 36C16 37.0609 16.4214 38.0783 17.1716 38.8284C17.9217 39.5786 18.9391 40 20 40H36C37.0609 40 38.0783 39.5786 38.8284 38.8284C39.5786 38.0783 40 37.0609 40 36C40 34.2319 39.2976 32.5362 38.0474 31.286C36.7971 30.0357 35.1014 29.3333 33.3333 29.3333H22.6667Z" fill="#56AF31"/>
</svg>
